<?xml version="1.0" encoding="us-ascii" standalone="no"?><svg xmlns="http://www.w3.org/2000/svg" xmlns:xlink="http://www.w3.org/1999/xlink" contentStyleType="text/css" height="969px" preserveAspectRatio="none" style="width:894px;height:969px;background:#FFFFFF;" version="1.1" viewBox="0 0 894 969" width="894px" zoomAndPan="magnify"><defs/><g><!--class Agent--><g id="elem_Agent"><rect codeLine="2" fill="#F1F1F1" height="56.2656" id="Agent" rx="2.5" ry="2.5" style="stroke:#181818;stroke-width:0.5;" width="99" x="578" y="7"/><ellipse cx="593" cy="27.1328" fill="#F1F1F1" rx="11" ry="11" style="stroke:#181818;stroke-width:1.0;"/><path d="M592.4844,27.6953 Q590.625,26.9922 589.9688,26.2266 Q589.3281,25.4453 589.3281,24.1328 Q589.3281,22.4453 590.4063,21.4766 Q591.4844,20.5078 593.3594,20.5078 Q594.2188,20.5078 595.0625,20.7109 Q595.9219,20.8984 596.7656,21.2891 L596.7656,23.6797 Q595.9844,23.1172 595.1563,22.8359 Q594.3438,22.5391 593.5469,22.5391 Q592.6719,22.5391 592.1875,22.8984 Q591.7188,23.2578 591.7188,23.9141 Q591.7188,24.4297 592.0625,24.7734 Q592.4063,25.1016 593.5,25.5078 L594.5625,25.9141 Q596.0469,26.4609 596.75,27.3672 Q597.4688,28.2734 597.4688,29.6484 Q597.4688,31.5234 596.3594,32.4453 Q595.25,33.3672 593,33.3672 Q592.0781,33.3672 591.1563,33.1484 Q590.2344,32.9297 589.375,32.5078 L589.375,29.9766 Q590.3438,30.6641 591.2656,31.0078 Q592.1875,31.3516 593.0781,31.3516 Q593.9844,31.3516 594.4844,30.9453 Q594.9844,30.5234 594.9844,29.7891 Q594.9844,29.2266 594.6406,28.8203 Q594.3125,28.3984 593.6875,28.1484 L592.4844,27.6953 Z " fill="#000000"/><text fill="#000000" font-family="sans-serif" font-size="12" font-style="italic" lengthAdjust="spacing" textLength="71" x="605" y="23.1387">&#171;spectype&#187;</text><text fill="#000000" font-family="sans-serif" font-size="14" lengthAdjust="spacing" textLength="41" x="620" y="38.9639">Agent</text><line style="stroke:#181818;stroke-width:0.5;" x1="579" x2="676" y1="47.2656" y2="47.2656"/><line style="stroke:#181818;stroke-width:0.5;" x1="579" x2="676" y1="55.2656" y2="55.2656"/></g><!--class Realm--><g id="elem_Realm"><rect codeLine="3" fill="#F1F1F1" height="56.2656" id="Realm" rx="2.5" ry="2.5" style="stroke:#181818;stroke-width:0.5;" width="99" x="598" y="390"/><ellipse cx="613" cy="410.1328" fill="#F1F1F1" rx="11" ry="11" style="stroke:#181818;stroke-width:1.0;"/><path d="M612.4844,410.6953 Q610.625,409.9922 609.9688,409.2266 Q609.3281,408.4453 609.3281,407.1328 Q609.3281,405.4453 610.4063,404.4766 Q611.4844,403.5078 613.3594,403.5078 Q614.2188,403.5078 615.0625,403.7109 Q615.9219,403.8984 616.7656,404.2891 L616.7656,406.6797 Q615.9844,406.1172 615.1563,405.8359 Q614.3438,405.5391 613.5469,405.5391 Q612.6719,405.5391 612.1875,405.8984 Q611.7188,406.2578 611.7188,406.9141 Q611.7188,407.4297 612.0625,407.7734 Q612.4063,408.1016 613.5,408.5078 L614.5625,408.9141 Q616.0469,409.4609 616.75,410.3672 Q617.4688,411.2734 617.4688,412.6484 Q617.4688,414.5234 616.3594,415.4453 Q615.25,416.3672 613,416.3672 Q612.0781,416.3672 611.1563,416.1484 Q610.2344,415.9297 609.375,415.5078 L609.375,412.9766 Q610.3438,413.6641 611.2656,414.0078 Q612.1875,414.3516 613.0781,414.3516 Q613.9844,414.3516 614.4844,413.9453 Q614.9844,413.5234 614.9844,412.7891 Q614.9844,412.2266 614.6406,411.8203 Q614.3125,411.3984 613.6875,411.1484 L612.4844,410.6953 Z " fill="#000000"/><text fill="#000000" font-family="sans-serif" font-size="12" font-style="italic" lengthAdjust="spacing" textLength="71" x="625" y="406.1387">&#171;spectype&#187;</text><text fill="#000000" font-family="sans-serif" font-size="14" lengthAdjust="spacing" textLength="43" x="639" y="421.9639">Realm</text><line style="stroke:#181818;stroke-width:0.5;" x1="599" x2="696" y1="430.2656" y2="430.2656"/><line style="stroke:#181818;stroke-width:0.5;" x1="599" x2="696" y1="438.2656" y2="438.2656"/></g><!--class ExecutionContext--><g id="elem_ExecutionContext"><rect codeLine="4" fill="#F1F1F1" height="56.2656" id="ExecutionContext" rx="2.5" ry="2.5" style="stroke:#181818;stroke-width:0.5;" width="154" x="550.5" y="124"/><ellipse cx="565.5" cy="144.1328" fill="#F1F1F1" rx="11" ry="11" style="stroke:#181818;stroke-width:1.0;"/><path d="M564.9844,144.6953 Q563.125,143.9922 562.4688,143.2266 Q561.8281,142.4453 561.8281,141.1328 Q561.8281,139.4453 562.9063,138.4766 Q563.9844,137.5078 565.8594,137.5078 Q566.7188,137.5078 567.5625,137.7109 Q568.4219,137.8984 569.2656,138.2891 L569.2656,140.6797 Q568.4844,140.1172 567.6563,139.8359 Q566.8438,139.5391 566.0469,139.5391 Q565.1719,139.5391 564.6875,139.8984 Q564.2188,140.2578 564.2188,140.9141 Q564.2188,141.4297 564.5625,141.7734 Q564.9063,142.1016 566,142.5078 L567.0625,142.9141 Q568.5469,143.4609 569.25,144.3672 Q569.9688,145.2734 569.9688,146.6484 Q569.9688,148.5234 568.8594,149.4453 Q567.75,150.3672 565.5,150.3672 Q564.5781,150.3672 563.6563,150.1484 Q562.7344,149.9297 561.875,149.5078 L561.875,146.9766 Q562.8438,147.6641 563.7656,148.0078 Q564.6875,148.3516 565.5781,148.3516 Q566.4844,148.3516 566.9844,147.9453 Q567.4844,147.5234 567.4844,146.7891 Q567.4844,146.2266 567.1406,145.8203 Q566.8125,145.3984 566.1875,145.1484 L564.9844,144.6953 Z " fill="#000000"/><text fill="#000000" font-family="sans-serif" font-size="12" font-style="italic" lengthAdjust="spacing" textLength="71" x="605" y="140.1387">&#171;spectype&#187;</text><text fill="#000000" font-family="sans-serif" font-size="14" lengthAdjust="spacing" textLength="122" x="579.5" y="155.9639">ExecutionContext</text><line style="stroke:#181818;stroke-width:0.5;" x1="551.5" x2="703.5" y1="164.2656" y2="164.2656"/><line style="stroke:#181818;stroke-width:0.5;" x1="551.5" x2="703.5" y1="172.2656" y2="172.2656"/></g><!--class Environment--><g id="elem_Environment"><rect codeLine="5" fill="#F1F1F1" height="56.2656" id="Environment" rx="2.5" ry="2.5" style="stroke:#181818;stroke-width:0.5;" width="120" x="108.5" y="390"/><ellipse cx="123.5" cy="410.1328" fill="#A9DCDF" rx="11" ry="11" style="stroke:#181818;stroke-width:1.0;"/><path d="M123.6094,405.4766 L122.4531,410.5547 L124.7813,410.5547 L123.6094,405.4766 Z M122.125,403.2422 L125.1094,403.2422 L128.4688,415.6328 L126.0156,415.6328 L125.25,412.5703 L121.9688,412.5703 L121.2188,415.6328 L118.7813,415.6328 L122.125,403.2422 Z " fill="#000000"/><text fill="#000000" font-family="sans-serif" font-size="12" font-style="italic" lengthAdjust="spacing" textLength="71" x="146" y="406.1387">&#171;spectype&#187;</text><text fill="#000000" font-family="sans-serif" font-size="14" font-style="italic" lengthAdjust="spacing" textLength="88" x="137.5" y="421.9639">Environment</text><line style="stroke:#181818;stroke-width:0.5;" x1="109.5" x2="227.5" y1="430.2656" y2="430.2656"/><line style="stroke:#181818;stroke-width:0.5;" x1="109.5" x2="227.5" y1="438.2656" y2="438.2656"/></g><!--class DeclerativeEnvironment--><g id="elem_DeclerativeEnvironment"><rect codeLine="6" fill="#F1F1F1" height="56.2656" id="DeclerativeEnvironment" rx="2.5" ry="2.5" style="stroke:#181818;stroke-width:0.5;" width="196" x="9.5" y="656"/><ellipse cx="24.5" cy="676.1328" fill="#F1F1F1" rx="11" ry="11" style="stroke:#181818;stroke-width:1.0;"/><path d="M23.9844,676.6953 Q22.125,675.9922 21.4688,675.2266 Q20.8281,674.4453 20.8281,673.1328 Q20.8281,671.4453 21.9063,670.4766 Q22.9844,669.5078 24.8594,669.5078 Q25.7188,669.5078 26.5625,669.7109 Q27.4219,669.8984 28.2656,670.2891 L28.2656,672.6797 Q27.4844,672.1172 26.6563,671.8359 Q25.8438,671.5391 25.0469,671.5391 Q24.1719,671.5391 23.6875,671.8984 Q23.2188,672.2578 23.2188,672.9141 Q23.2188,673.4297 23.5625,673.7734 Q23.9063,674.1016 25,674.5078 L26.0625,674.9141 Q27.5469,675.4609 28.25,676.3672 Q28.9688,677.2734 28.9688,678.6484 Q28.9688,680.5234 27.8594,681.4453 Q26.75,682.3672 24.5,682.3672 Q23.5781,682.3672 22.6563,682.1484 Q21.7344,681.9297 20.875,681.5078 L20.875,678.9766 Q21.8438,679.6641 22.7656,680.0078 Q23.6875,680.3516 24.5781,680.3516 Q25.4844,680.3516 25.9844,679.9453 Q26.4844,679.5234 26.4844,678.7891 Q26.4844,678.2266 26.1406,677.8203 Q25.8125,677.3984 25.1875,677.1484 L23.9844,676.6953 Z " fill="#000000"/><text fill="#000000" font-family="sans-serif" font-size="12" font-style="italic" lengthAdjust="spacing" textLength="71" x="85" y="672.1387">&#171;spectype&#187;</text><text fill="#000000" font-family="sans-serif" font-size="14" lengthAdjust="spacing" textLength="164" x="38.5" y="687.9639">DeclerativeEnvironment</text><line style="stroke:#181818;stroke-width:0.5;" x1="10.5" x2="204.5" y1="696.2656" y2="696.2656"/><line style="stroke:#181818;stroke-width:0.5;" x1="10.5" x2="204.5" y1="704.2656" y2="704.2656"/></g><!--class FunctionEnvironment--><g id="elem_FunctionEnvironment"><rect codeLine="7" fill="#F1F1F1" height="56.2656" id="FunctionEnvironment" rx="2.5" ry="2.5" style="stroke:#181818;stroke-width:0.5;" width="179" x="7" y="789"/><ellipse cx="22" cy="809.1328" fill="#F1F1F1" rx="11" ry="11" style="stroke:#181818;stroke-width:1.0;"/><path d="M21.4844,809.6953 Q19.625,808.9922 18.9688,808.2266 Q18.3281,807.4453 18.3281,806.1328 Q18.3281,804.4453 19.4063,803.4766 Q20.4844,802.5078 22.3594,802.5078 Q23.2188,802.5078 24.0625,802.7109 Q24.9219,802.8984 25.7656,803.2891 L25.7656,805.6797 Q24.9844,805.1172 24.1563,804.8359 Q23.3438,804.5391 22.5469,804.5391 Q21.6719,804.5391 21.1875,804.8984 Q20.7188,805.2578 20.7188,805.9141 Q20.7188,806.4297 21.0625,806.7734 Q21.4063,807.1016 22.5,807.5078 L23.5625,807.9141 Q25.0469,808.4609 25.75,809.3672 Q26.4688,810.2734 26.4688,811.6484 Q26.4688,813.5234 25.3594,814.4453 Q24.25,815.3672 22,815.3672 Q21.0781,815.3672 20.1563,815.1484 Q19.2344,814.9297 18.375,814.5078 L18.375,811.9766 Q19.3438,812.6641 20.2656,813.0078 Q21.1875,813.3516 22.0781,813.3516 Q22.9844,813.3516 23.4844,812.9453 Q23.9844,812.5234 23.9844,811.7891 Q23.9844,811.2266 23.6406,810.8203 Q23.3125,810.3984 22.6875,810.1484 L21.4844,809.6953 Z " fill="#000000"/><text fill="#000000" font-family="sans-serif" font-size="12" font-style="italic" lengthAdjust="spacing" textLength="71" x="74" y="805.1387">&#171;spectype&#187;</text><text fill="#000000" font-family="sans-serif" font-size="14" lengthAdjust="spacing" textLength="147" x="36" y="820.9639">FunctionEnvironment</text><line style="stroke:#181818;stroke-width:0.5;" x1="8" x2="185" y1="829.2656" y2="829.2656"/><line style="stroke:#181818;stroke-width:0.5;" x1="8" x2="185" y1="837.2656" y2="837.2656"/></g><!--class ModuleEnvironment--><g id="elem_ModuleEnvironment"><rect codeLine="8" fill="#F1F1F1" height="56.2656" id="ModuleEnvironment" rx="2.5" ry="2.5" style="stroke:#181818;stroke-width:0.5;" width="170" x="221.5" y="789"/><ellipse cx="236.5" cy="809.1328" fill="#F1F1F1" rx="11" ry="11" style="stroke:#181818;stroke-width:1.0;"/><path d="M235.9844,809.6953 Q234.125,808.9922 233.4688,808.2266 Q232.8281,807.4453 232.8281,806.1328 Q232.8281,804.4453 233.9063,803.4766 Q234.9844,802.5078 236.8594,802.5078 Q237.7188,802.5078 238.5625,802.7109 Q239.4219,802.8984 240.2656,803.2891 L240.2656,805.6797 Q239.4844,805.1172 238.6563,804.8359 Q237.8438,804.5391 237.0469,804.5391 Q236.1719,804.5391 235.6875,804.8984 Q235.2188,805.2578 235.2188,805.9141 Q235.2188,806.4297 235.5625,806.7734 Q235.9063,807.1016 237,807.5078 L238.0625,807.9141 Q239.5469,808.4609 240.25,809.3672 Q240.9688,810.2734 240.9688,811.6484 Q240.9688,813.5234 239.8594,814.4453 Q238.75,815.3672 236.5,815.3672 Q235.5781,815.3672 234.6563,815.1484 Q233.7344,814.9297 232.875,814.5078 L232.875,811.9766 Q233.8438,812.6641 234.7656,813.0078 Q235.6875,813.3516 236.5781,813.3516 Q237.4844,813.3516 237.9844,812.9453 Q238.4844,812.5234 238.4844,811.7891 Q238.4844,811.2266 238.1406,810.8203 Q237.8125,810.3984 237.1875,810.1484 L235.9844,809.6953 Z " fill="#000000"/><text fill="#000000" font-family="sans-serif" font-size="12" font-style="italic" lengthAdjust="spacing" textLength="71" x="284" y="805.1387">&#171;spectype&#187;</text><text fill="#000000" font-family="sans-serif" font-size="14" lengthAdjust="spacing" textLength="138" x="250.5" y="820.9639">ModuleEnvironment</text><line style="stroke:#181818;stroke-width:0.5;" x1="222.5" x2="390.5" y1="829.2656" y2="829.2656"/><line style="stroke:#181818;stroke-width:0.5;" x1="222.5" x2="390.5" y1="837.2656" y2="837.2656"/></g><!--class ObjectEnvironment--><g id="elem_ObjectEnvironment"><rect codeLine="9" fill="#F1F1F1" height="56.2656" id="ObjectEnvironment" rx="2.5" ry="2.5" style="stroke:#181818;stroke-width:0.5;" width="164" x="260.5" y="656"/><ellipse cx="275.5" cy="676.1328" fill="#F1F1F1" rx="11" ry="11" style="stroke:#181818;stroke-width:1.0;"/><path d="M274.9844,676.6953 Q273.125,675.9922 272.4688,675.2266 Q271.8281,674.4453 271.8281,673.1328 Q271.8281,671.4453 272.9063,670.4766 Q273.9844,669.5078 275.8594,669.5078 Q276.7188,669.5078 277.5625,669.7109 Q278.4219,669.8984 279.2656,670.2891 L279.2656,672.6797 Q278.4844,672.1172 277.6563,671.8359 Q276.8438,671.5391 276.0469,671.5391 Q275.1719,671.5391 274.6875,671.8984 Q274.2188,672.2578 274.2188,672.9141 Q274.2188,673.4297 274.5625,673.7734 Q274.9063,674.1016 276,674.5078 L277.0625,674.9141 Q278.5469,675.4609 279.25,676.3672 Q279.9688,677.2734 279.9688,678.6484 Q279.9688,680.5234 278.8594,681.4453 Q277.75,682.3672 275.5,682.3672 Q274.5781,682.3672 273.6563,682.1484 Q272.7344,681.9297 271.875,681.5078 L271.875,678.9766 Q272.8438,679.6641 273.7656,680.0078 Q274.6875,680.3516 275.5781,680.3516 Q276.4844,680.3516 276.9844,679.9453 Q277.4844,679.5234 277.4844,678.7891 Q277.4844,678.2266 277.1406,677.8203 Q276.8125,677.3984 276.1875,677.1484 L274.9844,676.6953 Z " fill="#000000"/><text fill="#000000" font-family="sans-serif" font-size="12" font-style="italic" lengthAdjust="spacing" textLength="71" x="320" y="672.1387">&#171;spectype&#187;</text><text fill="#000000" font-family="sans-serif" font-size="14" lengthAdjust="spacing" textLength="132" x="289.5" y="687.9639">ObjectEnvironment</text><line style="stroke:#181818;stroke-width:0.5;" x1="261.5" x2="423.5" y1="696.2656" y2="696.2656"/><line style="stroke:#181818;stroke-width:0.5;" x1="261.5" x2="423.5" y1="704.2656" y2="704.2656"/></g><!--class GlobalEnvironment--><g id="elem_GlobalEnvironment"><rect codeLine="10" fill="#F1F1F1" height="56.2656" id="GlobalEnvironment" rx="2.5" ry="2.5" style="stroke:#181818;stroke-width:0.5;" width="162" x="358.5" y="523"/><ellipse cx="373.5" cy="543.1328" fill="#F1F1F1" rx="11" ry="11" style="stroke:#181818;stroke-width:1.0;"/><path d="M372.9844,543.6953 Q371.125,542.9922 370.4688,542.2266 Q369.8281,541.4453 369.8281,540.1328 Q369.8281,538.4453 370.9063,537.4766 Q371.9844,536.5078 373.8594,536.5078 Q374.7188,536.5078 375.5625,536.7109 Q376.4219,536.8984 377.2656,537.2891 L377.2656,539.6797 Q376.4844,539.1172 375.6563,538.8359 Q374.8438,538.5391 374.0469,538.5391 Q373.1719,538.5391 372.6875,538.8984 Q372.2188,539.2578 372.2188,539.9141 Q372.2188,540.4297 372.5625,540.7734 Q372.9063,541.1016 374,541.5078 L375.0625,541.9141 Q376.5469,542.4609 377.25,543.3672 Q377.9688,544.2734 377.9688,545.6484 Q377.9688,547.5234 376.8594,548.4453 Q375.75,549.3672 373.5,549.3672 Q372.5781,549.3672 371.6563,549.1484 Q370.7344,548.9297 369.875,548.5078 L369.875,545.9766 Q370.8438,546.6641 371.7656,547.0078 Q372.6875,547.3516 373.5781,547.3516 Q374.4844,547.3516 374.9844,546.9453 Q375.4844,546.5234 375.4844,545.7891 Q375.4844,545.2266 375.1406,544.8203 Q374.8125,544.3984 374.1875,544.1484 L372.9844,543.6953 Z " fill="#000000"/><text fill="#000000" font-family="sans-serif" font-size="12" font-style="italic" lengthAdjust="spacing" textLength="71" x="417" y="539.1387">&#171;spectype&#187;</text><text fill="#000000" font-family="sans-serif" font-size="14" lengthAdjust="spacing" textLength="130" x="387.5" y="554.9639">GlobalEnvironment</text><line style="stroke:#181818;stroke-width:0.5;" x1="359.5" x2="519.5" y1="563.2656" y2="563.2656"/><line style="stroke:#181818;stroke-width:0.5;" x1="359.5" x2="519.5" y1="571.2656" y2="571.2656"/></g><!--class PrivateEnvironment--><g id="elem_PrivateEnvironment"><rect codeLine="11" fill="#F1F1F1" height="56.2656" id="PrivateEnvironment" rx="2.5" ry="2.5" style="stroke:#181818;stroke-width:0.5;" width="165" x="598" y="257"/><ellipse cx="613" cy="277.1328" fill="#F1F1F1" rx="11" ry="11" style="stroke:#181818;stroke-width:1.0;"/><path d="M612.4844,277.6953 Q610.625,276.9922 609.9688,276.2266 Q609.3281,275.4453 609.3281,274.1328 Q609.3281,272.4453 610.4063,271.4766 Q611.4844,270.5078 613.3594,270.5078 Q614.2188,270.5078 615.0625,270.7109 Q615.9219,270.8984 616.7656,271.2891 L616.7656,273.6797 Q615.9844,273.1172 615.1563,272.8359 Q614.3438,272.5391 613.5469,272.5391 Q612.6719,272.5391 612.1875,272.8984 Q611.7188,273.2578 611.7188,273.9141 Q611.7188,274.4297 612.0625,274.7734 Q612.4063,275.1016 613.5,275.5078 L614.5625,275.9141 Q616.0469,276.4609 616.75,277.3672 Q617.4688,278.2734 617.4688,279.6484 Q617.4688,281.5234 616.3594,282.4453 Q615.25,283.3672 613,283.3672 Q612.0781,283.3672 611.1563,283.1484 Q610.2344,282.9297 609.375,282.5078 L609.375,279.9766 Q610.3438,280.6641 611.2656,281.0078 Q612.1875,281.3516 613.0781,281.3516 Q613.9844,281.3516 614.4844,280.9453 Q614.9844,280.5234 614.9844,279.7891 Q614.9844,279.2266 614.6406,278.8203 Q614.3125,278.3984 613.6875,278.1484 L612.4844,277.6953 Z " fill="#000000"/><text fill="#000000" font-family="sans-serif" font-size="12" font-style="italic" lengthAdjust="spacing" textLength="71" x="658" y="273.1387">&#171;spectype&#187;</text><text fill="#000000" font-family="sans-serif" font-size="14" lengthAdjust="spacing" textLength="133" x="627" y="288.9639">PrivateEnvironment</text><line style="stroke:#181818;stroke-width:0.5;" x1="599" x2="762" y1="297.2656" y2="297.2656"/><line style="stroke:#181818;stroke-width:0.5;" x1="599" x2="762" y1="305.2656" y2="305.2656"/></g><!--class Script--><g id="elem_Script"><rect codeLine="12" fill="#F1F1F1" height="56.2656" id="Script" rx="2.5" ry="2.5" style="stroke:#181818;stroke-width:0.5;" width="99" x="464" y="257"/><ellipse cx="479" cy="277.1328" fill="#F1F1F1" rx="11" ry="11" style="stroke:#181818;stroke-width:1.0;"/><path d="M478.4844,277.6953 Q476.625,276.9922 475.9688,276.2266 Q475.3281,275.4453 475.3281,274.1328 Q475.3281,272.4453 476.4063,271.4766 Q477.4844,270.5078 479.3594,270.5078 Q480.2188,270.5078 481.0625,270.7109 Q481.9219,270.8984 482.7656,271.2891 L482.7656,273.6797 Q481.9844,273.1172 481.1563,272.8359 Q480.3438,272.5391 479.5469,272.5391 Q478.6719,272.5391 478.1875,272.8984 Q477.7188,273.2578 477.7188,273.9141 Q477.7188,274.4297 478.0625,274.7734 Q478.4063,275.1016 479.5,275.5078 L480.5625,275.9141 Q482.0469,276.4609 482.75,277.3672 Q483.4688,278.2734 483.4688,279.6484 Q483.4688,281.5234 482.3594,282.4453 Q481.25,283.3672 479,283.3672 Q478.0781,283.3672 477.1563,283.1484 Q476.2344,282.9297 475.375,282.5078 L475.375,279.9766 Q476.3438,280.6641 477.2656,281.0078 Q478.1875,281.3516 479.0781,281.3516 Q479.9844,281.3516 480.4844,280.9453 Q480.9844,280.5234 480.9844,279.7891 Q480.9844,279.2266 480.6406,278.8203 Q480.3125,278.3984 479.6875,278.1484 L478.4844,277.6953 Z " fill="#000000"/><text fill="#000000" font-family="sans-serif" font-size="12" font-style="italic" lengthAdjust="spacing" textLength="71" x="491" y="273.1387">&#171;spectype&#187;</text><text fill="#000000" font-family="sans-serif" font-size="14" lengthAdjust="spacing" textLength="39" x="507" y="288.9639">Script</text><line style="stroke:#181818;stroke-width:0.5;" x1="465" x2="562" y1="297.2656" y2="297.2656"/><line style="stroke:#181818;stroke-width:0.5;" x1="465" x2="562" y1="305.2656" y2="305.2656"/></g><!--class Object--><g id="elem_Object"><rect codeLine="14" fill="#F1F1F1" height="56.2656" id="Object" rx="2.5" ry="2.5" style="stroke:#181818;stroke-width:0.5;" width="97" x="590" y="789"/><ellipse cx="605" cy="809.1328" fill="#F1F1F1" rx="11" ry="11" style="stroke:#181818;stroke-width:1.0;"/><path d="M604.4844,809.6953 Q602.625,808.9922 601.9688,808.2266 Q601.3281,807.4453 601.3281,806.1328 Q601.3281,804.4453 602.4063,803.4766 Q603.4844,802.5078 605.3594,802.5078 Q606.2188,802.5078 607.0625,802.7109 Q607.9219,802.8984 608.7656,803.2891 L608.7656,805.6797 Q607.9844,805.1172 607.1563,804.8359 Q606.3438,804.5391 605.5469,804.5391 Q604.6719,804.5391 604.1875,804.8984 Q603.7188,805.2578 603.7188,805.9141 Q603.7188,806.4297 604.0625,806.7734 Q604.4063,807.1016 605.5,807.5078 L606.5625,807.9141 Q608.0469,808.4609 608.75,809.3672 Q609.4688,810.2734 609.4688,811.6484 Q609.4688,813.5234 608.3594,814.4453 Q607.25,815.3672 605,815.3672 Q604.0781,815.3672 603.1563,815.1484 Q602.2344,814.9297 601.375,814.5078 L601.375,811.9766 Q602.3438,812.6641 603.2656,813.0078 Q604.1875,813.3516 605.0781,813.3516 Q605.9844,813.3516 606.4844,812.9453 Q606.9844,812.5234 606.9844,811.7891 Q606.9844,811.2266 606.6406,810.8203 Q606.3125,810.3984 605.6875,810.1484 L604.4844,809.6953 Z " fill="#000000"/><text fill="#000000" font-family="sans-serif" font-size="12" font-style="italic" lengthAdjust="spacing" textLength="69" x="617" y="805.1387">&#171;langtype&#187;</text><text fill="#000000" font-family="sans-serif" font-size="14" lengthAdjust="spacing" textLength="45" x="629" y="820.9639">Object</text><line style="stroke:#181818;stroke-width:0.5;" x1="591" x2="686" y1="829.2656" y2="829.2656"/><line style="stroke:#181818;stroke-width:0.5;" x1="591" x2="686" y1="837.2656" y2="837.2656"/></g><!--class Function--><g id="elem_Function"><rect codeLine="15" fill="#F1F1F1" height="56.2656" id="Function" rx="2.5" ry="2.5" style="stroke:#181818;stroke-width:0.5;" width="97" x="714" y="906"/><ellipse cx="729" cy="926.1328" fill="#F1F1F1" rx="11" ry="11" style="stroke:#181818;stroke-width:1.0;"/><path d="M728.4844,926.6953 Q726.625,925.9922 725.9688,925.2266 Q725.3281,924.4453 725.3281,923.1328 Q725.3281,921.4453 726.4063,920.4766 Q727.4844,919.5078 729.3594,919.5078 Q730.2188,919.5078 731.0625,919.7109 Q731.9219,919.8984 732.7656,920.2891 L732.7656,922.6797 Q731.9844,922.1172 731.1563,921.8359 Q730.3438,921.5391 729.5469,921.5391 Q728.6719,921.5391 728.1875,921.8984 Q727.7188,922.2578 727.7188,922.9141 Q727.7188,923.4297 728.0625,923.7734 Q728.4063,924.1016 729.5,924.5078 L730.5625,924.9141 Q732.0469,925.4609 732.75,926.3672 Q733.4688,927.2734 733.4688,928.6484 Q733.4688,930.5234 732.3594,931.4453 Q731.25,932.3672 729,932.3672 Q728.0781,932.3672 727.1563,932.1484 Q726.2344,931.9297 725.375,931.5078 L725.375,928.9766 Q726.3438,929.6641 727.2656,930.0078 Q728.1875,930.3516 729.0781,930.3516 Q729.9844,930.3516 730.4844,929.9453 Q730.9844,929.5234 730.9844,928.7891 Q730.9844,928.2266 730.6406,927.8203 Q730.3125,927.3984 729.6875,927.1484 L728.4844,926.6953 Z " fill="#000000"/><text fill="#000000" font-family="sans-serif" font-size="12" font-style="italic" lengthAdjust="spacing" textLength="69" x="741" y="922.1387">&#171;langtype&#187;</text><text fill="#000000" font-family="sans-serif" font-size="14" lengthAdjust="spacing" textLength="60" x="745.5" y="937.9639">Function</text><line style="stroke:#181818;stroke-width:0.5;" x1="715" x2="810" y1="946.2656" y2="946.2656"/><line style="stroke:#181818;stroke-width:0.5;" x1="715" x2="810" y1="954.2656" y2="954.2656"/></g><!--class StringList--><g id="elem_StringList"><rect fill="#F1F1F1" height="48" id="StringList" rx="2.5" ry="2.5" style="stroke:#181818;stroke-width:0.5;" width="95" x="633" y="660"/><ellipse cx="648" cy="676" fill="#ADD1B2" rx="11" ry="11" style="stroke:#181818;stroke-width:1.0;"/><path d="M650.9688,681.6406 Q650.3906,681.9375 649.75,682.0781 Q649.1094,682.2344 648.4063,682.2344 Q645.9063,682.2344 644.5781,680.5938 Q643.2656,678.9375 643.2656,675.8125 Q643.2656,672.6875 644.5781,671.0313 Q645.9063,669.375 648.4063,669.375 Q649.1094,669.375 649.75,669.5313 Q650.4063,669.6875 650.9688,669.9844 L650.9688,672.7031 Q650.3438,672.125 649.75,671.8594 Q649.1563,671.5781 648.5313,671.5781 Q647.1875,671.5781 646.5,672.6563 Q645.8125,673.7188 645.8125,675.8125 Q645.8125,677.9063 646.5,678.9844 Q647.1875,680.0469 648.5313,680.0469 Q649.1563,680.0469 649.75,679.7813 Q650.3438,679.5 650.9688,678.9219 L650.9688,681.6406 Z " fill="#000000"/><text fill="#000000" font-family="sans-serif" font-size="14" lengthAdjust="spacing" textLength="63" x="662" y="680.8467">StringList</text><line style="stroke:#181818;stroke-width:0.5;" x1="634" x2="727" y1="692" y2="692"/><line style="stroke:#181818;stroke-width:0.5;" x1="634" x2="727" y1="700" y2="700"/></g><!--reverse link Agent to ExecutionContext--><g id="link_Agent_ExecutionContext"><path codeLine="17" d="M627.5,75.25 C627.5,93.59 627.5,105.65 627.5,123.94 " fill="none" id="Agent-backto-ExecutionContext" style="stroke:#181818;stroke-width:1.0;"/><polygon fill="#181818" points="627.5,63.25,623.5,69.25,627.5,75.25,631.5,69.25,627.5,63.25" style="stroke:#181818;stroke-width:1.0;"/><text fill="#000000" font-family="sans-serif" font-size="13" lengthAdjust="spacing" textLength="8" x="618.625" y="83.1227">1</text><text fill="#000000" font-family="sans-serif" font-size="13" lengthAdjust="spacing" textLength="7" x="619.6906" y="112.7683">*</text></g><!--reverse link Realm to Object--><g id="link_Realm_Object"><path codeLine="19" d="M676.9865,455.7222 C716.9065,508.0722 785.79,616.64 745.5,712 C732.14,743.62 703.95,770.37 679.85,788.82 " fill="none" id="Realm-backto-Object" style="stroke:#181818;stroke-width:1.0;"/><polygon fill="none" points="669.71,446.18,670.1675,453.3766,676.9865,455.7222,676.529,448.5256,669.71,446.18" style="stroke:#181818;stroke-width:1.0;"/><text fill="#000000" font-family="sans-serif" font-size="13" lengthAdjust="spacing" textLength="81" x="755.5" y="622.0669">GlobalObject</text></g><!--reverse link Realm to GlobalEnvironment--><g id="link_Realm_GlobalEnvironment"><path codeLine="20" d="M594.2468,452.5362 C558.5468,475.0262 518.23,500.42 482.54,522.89 " fill="none" id="Realm-backto-GlobalEnvironment" style="stroke:#181818;stroke-width:1.0;"/><polygon fill="none" points="604.4,446.14,597.1913,445.9537,594.2468,452.5362,601.4555,452.7225,604.4,446.14" style="stroke:#181818;stroke-width:1.0;"/><text fill="#000000" font-family="sans-serif" font-size="13" lengthAdjust="spacing" textLength="63" x="557.5" y="489.0669">GlobalEnv</text></g><!--reverse link ExecutionContext to Function--><g id="link_ExecutionContext_Function"><path codeLine="22" d="M716.6726,161.3241 C793.3226,172.5841 887.5,201.36 887.5,284 C887.5,284 887.5,284 887.5,818 C887.5,861.35 846.28,892.83 811.19,911.78 " fill="none" id="ExecutionContext-backto-Function" style="stroke:#181818;stroke-width:1.0;"/><polygon fill="none" points="704.8,159.58,710.1549,164.4096,716.6726,161.3241,711.3177,156.4945,704.8,159.58" style="stroke:#181818;stroke-width:1.0;"/><text fill="#000000" font-family="sans-serif" font-size="13" lengthAdjust="spacing" textLength="24" x="818.9659" y="905.0305">0..1</text></g><!--reverse link ExecutionContext to Realm--><g id="link_ExecutionContext_Realm"><path codeLine="23" d="M716.2245,162.9568 C748.5945,170.2768 771.59,182 791.5,210 C804.97,228.95 833.59,219.67 780.5,313 C761.3,346.76 726.34,373.43 697.09,391.31 " fill="none" id="ExecutionContext-backto-Realm" style="stroke:#181818;stroke-width:1.0;"/><polygon fill="none" points="704.52,160.31,709.49,165.5349,716.2245,162.9568,711.2545,157.7319,704.52,160.31" style="stroke:#181818;stroke-width:1.0;"/></g><!--reverse link ExecutionContext to Script--><g id="link_ExecutionContext_Script"><path codeLine="24" d="M596.0028,189.1926 C576.4328,211.6826 556.65,234.42 537.09,256.89 " fill="none" id="ExecutionContext-backto-Script" style="stroke:#181818;stroke-width:1.0;"/><polygon fill="none" points="603.88,180.14,596.9239,182.0405,596.0028,189.1926,602.9589,187.292,603.88,180.14" style="stroke:#181818;stroke-width:1.0;"/></g><!--reverse link ExecutionContext to Environment--><g id="link_ExecutionContext_Environment"><path codeLine="25" d="M538.3138,157.4954 C409.9038,165.5954 173.65,189.1 124.5,257 C95.36,297.25 125.47,355.91 148.21,389.89 " fill="none" id="ExecutionContext-backto-Environment" style="stroke:#181818;stroke-width:1.0;"/><polygon fill="none" points="550.29,156.74,544.0501,153.1257,538.3138,157.4954,544.5537,161.1098,550.29,156.74" style="stroke:#181818;stroke-width:1.0;"/><text fill="#000000" font-family="sans-serif" font-size="13" lengthAdjust="spacing" textLength="124" x="125.5" y="289.5669">LexicalEnvironment</text></g><!--reverse link ExecutionContext to Environment--><g id="link_ExecutionContext_Environment"><path codeLine="26" d="M538.7094,169.1186 C471.4894,183.6086 385.19,208.75 311.5,257 C297.01,266.49 228.09,346.65 191.48,389.78 " fill="none" id="ExecutionContext-backto-Environment-1" style="stroke:#181818;stroke-width:1.0;"/><polygon fill="none" points="550.44,166.59,543.7318,163.9441,538.7094,169.1186,545.4176,171.7645,550.44,166.59" style="stroke:#181818;stroke-width:1.0;"/><text fill="#000000" font-family="sans-serif" font-size="13" lengthAdjust="spacing" textLength="133" x="312.5" y="289.5669">VariableEnvironment</text></g><!--reverse link ExecutionContext to PrivateEnvironment--><g id="link_ExecutionContext_PrivateEnvironment"><path codeLine="27" d="M642.981,191.2639 C652.081,213.7539 660.44,234.42 669.53,256.89 " fill="none" id="ExecutionContext-backto-PrivateEnvironment" style="stroke:#181818;stroke-width:1.0;"/><polygon fill="none" points="638.48,180.14,637.0225,187.2023,642.981,191.2639,644.4385,184.2016,638.48,180.14" style="stroke:#181818;stroke-width:1.0;"/><text fill="#000000" font-family="sans-serif" font-size="13" lengthAdjust="spacing" textLength="125" x="657.5" y="223.0669">PrivateEnvironment</text></g><!--reverse link Environment to DeclerativeEnvironment--><g id="link_Environment_DeclerativeEnvironment"><path codeLine="29" d="M146.6675,462.5623 C142.3275,471.8023 145.56,466.02 142.5,476 C123.25,538.72 113.77,615.58 109.83,655.68 " fill="none" id="Environment-backto-DeclerativeEnvironment" style="stroke:#181818;stroke-width:1.0;stroke-dasharray:7.0,7.0;"/><polygon fill="none" points="154.32,446.27,141.2368,460.0115,152.0983,465.1131,154.32,446.27" style="stroke:#181818;stroke-width:1.0;"/></g><!--reverse link DeclerativeEnvironment to FunctionEnvironment--><g id="link_DeclerativeEnvironment_FunctionEnvironment"><path codeLine="30" d="M103.7126,730.0768 C101.8226,752.5668 100.66,766.42 98.78,788.89 " fill="none" id="DeclerativeEnvironment-backto-FunctionEnvironment" style="stroke:#181818;stroke-width:1.0;"/><polygon fill="none" points="105.22,712.14,97.7337,729.5743,109.6916,730.5792,105.22,712.14" style="stroke:#181818;stroke-width:1.0;"/></g><!--reverse link DeclerativeEnvironment to ModuleEnvironment--><g id="link_DeclerativeEnvironment_ModuleEnvironment"><path codeLine="31" d="M163.7642,722.0381 C197.9242,744.5281 231.18,766.42 265.32,788.89 " fill="none" id="DeclerativeEnvironment-backto-ModuleEnvironment" style="stroke:#181818;stroke-width:1.0;"/><polygon fill="none" points="148.73,712.14,160.4648,727.0495,167.0636,717.0267,148.73,712.14" style="stroke:#181818;stroke-width:1.0;"/></g><!--reverse link Environment to ObjectEnvironment--><g id="link_Environment_ObjectEnvironment"><path codeLine="32" d="M163.6107,464.0623 C159.8707,507.0723 160.59,573.48 202.5,626 C217.15,644.36 238.67,656.85 260.46,665.33 " fill="none" id="Environment-backto-ObjectEnvironment" style="stroke:#181818;stroke-width:1.0;stroke-dasharray:7.0,7.0;"/><polygon fill="none" points="165.17,446.13,157.6332,463.5426,169.5881,464.5821,165.17,446.13" style="stroke:#181818;stroke-width:1.0;"/></g><!--reverse link Environment to GlobalEnvironment--><g id="link_Environment_GlobalEnvironment"><path codeLine="33" d="M240.8549,453.9759 C287.3649,476.4659 336.93,500.42 383.42,522.89 " fill="none" id="Environment-backto-GlobalEnvironment" style="stroke:#181818;stroke-width:1.0;stroke-dasharray:7.0,7.0;"/><polygon fill="none" points="224.65,446.14,238.2429,459.3775,243.4669,448.5743,224.65,446.14" style="stroke:#181818;stroke-width:1.0;"/></g><!--reverse link Environment to Environment--><g id="link_Environment_Environment"><path codeLine="35" d="M240.7998,405.7044 C260.1598,405.8244 263.5,409.88 263.5,418 C263.5,426.12 248.16,430.25 228.8,430.37 " fill="none" id="Environment-backto-Environment" style="stroke:#181818;stroke-width:1.0;"/><polygon fill="none" points="228.8,405.63,234.7751,409.6671,240.7998,405.7044,234.8247,401.6673,228.8,405.63" style="stroke:#181818;stroke-width:1.0;"/><text fill="#000000" font-family="sans-serif" font-size="13" lengthAdjust="spacing" textLength="59" x="269.5" y="422.5669">OuterEnv</text></g><!--reverse link ObjectEnvironment to Object--><g id="link_ObjectEnvironment_Object"><path codeLine="37" d="M353.0376,723.4399 C358.3776,739.3999 363.68,747.33 378.5,759 C410.82,784.44 523.89,802.06 589.8,810.44 " fill="none" id="ObjectEnvironment-backto-Object" style="stroke:#181818;stroke-width:1.0;"/><polygon fill="none" points="349.23,712.06,347.3405,719.0191,353.0376,723.4399,354.9271,716.4808,349.23,712.06" style="stroke:#181818;stroke-width:1.0;"/><text fill="#000000" font-family="sans-serif" font-size="13" lengthAdjust="spacing" textLength="88" x="379.5" y="755.0669">BindingObject</text></g><!--reverse link GlobalEnvironment to ObjectEnvironment--><g id="link_GlobalEnvironment_ObjectEnvironment"><path codeLine="39" d="M399.7929,587.4207 C390.4929,596.3907 389.34,598.47 381.5,609 C370.75,623.45 361.27,641.26 354.34,655.79 " fill="none" id="GlobalEnvironment-backto-ObjectEnvironment" style="stroke:#181818;stroke-width:1.0;"/><polygon fill="none" points="408.43,579.09,401.3345,580.3763,399.7929,587.4207,406.8883,586.1344,408.43,579.09" style="stroke:#181818;stroke-width:1.0;"/><text fill="#000000" font-family="sans-serif" font-size="13" lengthAdjust="spacing" textLength="85" x="382.5" y="622.0669">ObjectRecord</text></g><!--reverse link GlobalEnvironment to Object--><g id="link_GlobalEnvironment_Object"><path codeLine="40" d="M462.4023,589.4244 C467.8823,598.7444 467.7,599 472.5,609 C493.75,653.27 483.74,672.19 512.5,712 C534.84,742.92 568.49,770.06 595.39,788.86 " fill="none" id="GlobalEnvironment-backto-Object" style="stroke:#181818;stroke-width:1.0;"/><polygon fill="none" points="456.32,579.08,455.913,586.2796,462.4023,589.4244,462.8093,582.2247,456.32,579.08" style="stroke:#181818;stroke-width:1.0;"/><text fill="#000000" font-family="sans-serif" font-size="13" lengthAdjust="spacing" textLength="101" x="513.5" y="688.5669">GlobalThisValue</text></g><!--reverse link GlobalEnvironment to DeclerativeEnvironment--><g id="link_GlobalEnvironment_DeclerativeEnvironment"><path codeLine="41" d="M346.8943,574.953 C311.6143,584.593 281.72,594.16 245.5,609 C213.3,622.2 178.8,640.7 152.35,655.9 " fill="none" id="GlobalEnvironment-backto-DeclerativeEnvironment" style="stroke:#181818;stroke-width:1.0;"/><polygon fill="none" points="358.47,571.79,351.6279,569.5129,346.8943,574.953,353.7365,577.23,358.47,571.79" style="stroke:#181818;stroke-width:1.0;"/><text fill="#000000" font-family="sans-serif" font-size="13" lengthAdjust="spacing" textLength="116" x="246.5" y="622.0669">DeclarativeRecord</text></g><!--reverse link GlobalEnvironment to StringList--><g id="link_GlobalEnvironment_StringList"><path codeLine="42" d="M499.9821,584.8727 C543.8221,608.7127 596.36,637.27 637.88,659.83 " fill="none" id="GlobalEnvironment-backto-StringList" style="stroke:#181818;stroke-width:1.0;"/><polygon fill="none" points="489.44,579.14,492.8001,585.5204,499.9821,584.8727,496.622,578.4923,489.44,579.14" style="stroke:#181818;stroke-width:1.0;"/><text fill="#000000" font-family="sans-serif" font-size="13" lengthAdjust="spacing" textLength="68" x="575.5" y="622.0669">VarNames</text></g><!--reverse link Script to Realm--><g id="link_Script_Realm"><path codeLine="44" d="M549.8399,321.5296 C572.8399,344.0196 596.78,367.42 619.77,389.89 " fill="none" id="Script-backto-Realm" style="stroke:#181818;stroke-width:1.0;"/><polygon fill="none" points="541.26,313.14,542.7534,320.1948,549.8399,321.5296,548.3465,314.4749,541.26,313.14" style="stroke:#181818;stroke-width:1.0;"/><text fill="#000000" font-family="sans-serif" font-size="13" lengthAdjust="spacing" textLength="40" x="590.5" y="356.0669">Realm</text></g><!--reverse link Object to Function--><g id="link_Object_Function"><path codeLine="46" d="M681.0831,857.495 C700.8431,875.835 713.6,887.65 733.32,905.94 " fill="none" id="Object-backto-Function" style="stroke:#181818;stroke-width:1.0;"/><polygon fill="none" points="667.89,845.25,677.0015,861.8928,685.1648,853.0973,667.89,845.25" style="stroke:#181818;stroke-width:1.0;"/></g><!--SRC=[ZLFBReCm4BpxAn37I47j5KMH-hwaJPLKkHkpegwCZOn1LCh7rs2IO6oWHtPccTsTSQbaHLJma05NmMPJ5a3KRm7RBIeDSW3CSY_oqW2f51NyIN05pQWT9vg6MnglgHGydn9u1i90OaLhMAA-LfoqWakyTv5MRF5l- -H7bvPORqmac2snFYMjiLgKF199Yn5aZwCnXddctzi6aJ4jl0-3rNeTXAlGiGGXOv_GUF__kD_8V0vmTz7uLaF8SRlj2U-YICjVvlEJEWa_PExXn-n9Tj1GOettdwuJbXGdLXJyRHx_OazHds7ey3cA9kABfb9zrcAU6C_odJYxKpXPTYcEl_Ooxl7sbGBPUU- -52jGZvIdb6Tzef0Rf1jxfD3L3a24J6VRhb7y-gRb2RCA9kWJPumx01jWLk-ef5vbHyi-FXyuXnAX_k5Uuwn14sjqURP3Oz4V]--></g></svg>